<svg xmlns="http://www.w3.org/2000/svg" xmlns:xlink="http://www.w3.org/1999/xlink" xmlns:inkscape="http://www.inkscape.org/namespaces/inkscape" version="1.1" width="504.065" height="510.70127" viewBox="0 0 504.065 510.70127">
<defs>
<clipPath id="clip_1">
<path transform="matrix(1,0,0,-1,0,510.70127)" d="M41.825 43.965627H496.86503V487.48564H41.825Z"/>
</clipPath>
<clipPath id="clip_2">
<path transform="matrix(1,0,0,-1,0,510.70127)" d="M41.825 43.965627H496.86503V487.48564H41.825Z"/>
</clipPath>
<clipPath id="clip_3">
<path transform="matrix(1,0,0,-1,0,510.70127)" d="M41.825 43.965627H496.86503V487.48564H41.825Z"/>
</clipPath>
<clipPath id="clip_4">
<path transform="matrix(1,0,0,-1,0,510.70127)" d="M41.825 43.965627H496.86503V487.48564H41.825Z"/>
</clipPath>
<clipPath id="clip_5">
<path transform="matrix(1,0,0,-1,0,510.70127)" d="M41.825 43.965627H496.86503V487.48564H41.825Z"/>
</clipPath>
<clipPath id="clip_6">
<path transform="matrix(1,0,0,-1,0,510.70127)" d="M41.825 43.965627H496.86503V487.48564H41.825Z"/>
</clipPath>
<clipPath id="clip_7">
<path transform="matrix(1,0,0,-1,0,510.70127)" d="M41.825 43.965627H496.86503V487.48564H41.825Z"/>
</clipPath>
<clipPath id="clip_8">
<path transform="matrix(1,0,0,-1,0,510.70127)" d="M41.825 43.965627H496.86503V487.48564H41.825Z"/>
</clipPath>
<clipPath id="clip_9">
<path transform="matrix(.014,0,0,-.014,7.2,454.20835)" d="M-665-325H2000V1040H-665Z"/>
</clipPath>
<clipPath id="clip_10">
<path transform="matrix(1,0,0,-1,0,510.70127)" d="M41.825 43.965627H496.86503V487.48564H41.825Z"/>
</clipPath>
<clipPath id="clip_11">
<path transform="matrix(.014,0,0,-.014,7.2,394.94929)" d="M-665-325H2000V1040H-665Z"/>
</clipPath>
<clipPath id="clip_12">
<path transform="matrix(1,0,0,-1,0,510.70127)" d="M41.825 43.965627H496.86503V487.48564H41.825Z"/>
</clipPath>
<clipPath id="clip_13">
<path transform="matrix(.014,0,0,-.014,7.2,335.69023)" d="M-665-325H2000V1040H-665Z"/>
</clipPath>
<clipPath id="clip_14">
<path transform="matrix(1,0,0,-1,0,510.70127)" d="M41.825 43.965627H496.86503V487.48564H41.825Z"/>
</clipPath>
<clipPath id="clip_15">
<path transform="matrix(.014,0,0,-.014,7.2,276.43116)" d="M-665-325H2000V1040H-665Z"/>
</clipPath>
<clipPath id="clip_16">
<path transform="matrix(1,0,0,-1,0,510.70127)" d="M41.825 43.965627H496.86503V487.48564H41.825Z"/>
</clipPath>
<clipPath id="clip_17">
<path transform="matrix(.014,0,0,-.014,7.2,217.17209)" d="M-665-325H2000V1040H-665Z"/>
</clipPath>
<clipPath id="clip_18">
<path transform="matrix(1,0,0,-1,0,510.70127)" d="M41.825 43.965627H496.86503V487.48564H41.825Z"/>
</clipPath>
<clipPath id="clip_19">
<path transform="matrix(.014,0,0,-.014,7.2,157.91303)" d="M-665-325H2000V1040H-665Z"/>
</clipPath>
<clipPath id="clip_20">
<path transform="matrix(1,0,0,-1,0,510.70127)" d="M41.825 43.965627H496.86503V487.48564H41.825Z"/>
</clipPath>
<clipPath id="clip_21">
<path transform="matrix(.014,0,0,-.014,7.2,98.65396)" d="M-665-325H2000V1040H-665Z"/>
</clipPath>
<clipPath id="clip_22">
<path transform="matrix(1,0,0,-1,0,510.70127)" d="M41.825 43.965627H496.86503V487.48564H41.825Z"/>
</clipPath>
<clipPath id="clip_23">
<path transform="matrix(.014,0,0,-.014,7.2,39.394899)" d="M-665-325H2000V1040H-665Z"/>
</clipPath>
</defs>
<path transform="matrix(1,0,0,-1,0,510.70127)" d="M0 0H504.065V510.70127H0Z" fill="#ffffff"/>
<path transform="matrix(1,0,0,-1,0,510.70127)" d="M41.825 43.965627H496.865V487.48564H41.825Z" fill="#ffffff"/>
<g clip-path="url(#clip_1)">
<path transform="matrix(1,0,0,-1,0,510.70127)" stroke-width=".8" stroke-linecap="square" stroke-linejoin="round" fill="none" stroke="#cccccc" d="M54.70349 43.965627V487.48564"/>
</g>
<path transform="matrix(1,0,0,-1,0,510.70127)" d="M54.70349 43.965627V40.465627"/>
<path transform="matrix(1,0,0,-1,0,510.70127)" stroke-width=".8" stroke-linecap="butt" stroke-linejoin="round" fill="none" stroke="#000000" d="M54.70349 43.965627V40.465627"/>
<text xml:space="preserve" transform="matrix(1 0 -0 1 50.812868 483.75126)" font-size="14" font-family="ArialMT"><tspan y="0" x="0">0</tspan></text>
<g clip-path="url(#clip_2)">
<path transform="matrix(1,0,0,-1,0,510.70127)" stroke-width=".8" stroke-linecap="square" stroke-linejoin="round" fill="none" stroke="#cccccc" d="M126.25066 43.965627V487.48564"/>
</g>
<path transform="matrix(1,0,0,-1,0,510.70127)" d="M126.25066 43.965627V40.465627"/>
<path transform="matrix(1,0,0,-1,0,510.70127)" stroke-width=".8" stroke-linecap="butt" stroke-linejoin="round" fill="none" stroke="#000000" d="M126.25066 43.965627V40.465627"/>
<text xml:space="preserve" transform="matrix(1 0 -0 1 122.36004 483.75126)" font-size="14" font-family="ArialMT"><tspan y="0" x="0">5</tspan></text>
<g clip-path="url(#clip_3)">
<path transform="matrix(1,0,0,-1,0,510.70127)" stroke-width=".8" stroke-linecap="square" stroke-linejoin="round" fill="none" stroke="#cccccc" d="M197.79784 43.965627V487.48564"/>
</g>
<path transform="matrix(1,0,0,-1,0,510.70127)" d="M197.79784 43.965627V40.465627"/>
<path transform="matrix(1,0,0,-1,0,510.70127)" stroke-width=".8" stroke-linecap="butt" stroke-linejoin="round" fill="none" stroke="#000000" d="M197.79784 43.965627V40.465627"/>
<text xml:space="preserve" transform="matrix(1 0 -0 1 190.01659 483.75126)" font-size="14" font-family="ArialMT"><tspan y="0" x="0 7.784001">10</tspan></text>
<g clip-path="url(#clip_4)">
<path transform="matrix(1,0,0,-1,0,510.70127)" stroke-width=".8" stroke-linecap="square" stroke-linejoin="round" fill="none" stroke="#cccccc" d="M269.345 43.965627V487.48564"/>
</g>
<path transform="matrix(1,0,0,-1,0,510.70127)" d="M269.345 43.965627V40.465627"/>
<path transform="matrix(1,0,0,-1,0,510.70127)" stroke-width=".8" stroke-linecap="butt" stroke-linejoin="round" fill="none" stroke="#000000" d="M269.345 43.965627V40.465627"/>
<text xml:space="preserve" transform="matrix(1 0 -0 1 261.56376 483.75126)" font-size="14" font-family="ArialMT"><tspan y="0" x="0 7.784001">15</tspan></text>
<g clip-path="url(#clip_5)">
<path transform="matrix(1,0,0,-1,0,510.70127)" stroke-width=".8" stroke-linecap="square" stroke-linejoin="round" fill="none" stroke="#cccccc" d="M340.89219 43.965627V487.48564"/>
</g>
<path transform="matrix(1,0,0,-1,0,510.70127)" d="M340.89219 43.965627V40.465627"/>
<path transform="matrix(1,0,0,-1,0,510.70127)" stroke-width=".8" stroke-linecap="butt" stroke-linejoin="round" fill="none" stroke="#000000" d="M340.89219 43.965627V40.465627"/>
<text xml:space="preserve" transform="matrix(1 0 -0 1 333.11094 483.75126)" font-size="14" font-family="ArialMT"><tspan y="0" x="0 7.784001">20</tspan></text>
<g clip-path="url(#clip_6)">
<path transform="matrix(1,0,0,-1,0,510.70127)" stroke-width=".8" stroke-linecap="square" stroke-linejoin="round" fill="none" stroke="#cccccc" d="M412.43934 43.965627V487.48564"/>
</g>
<path transform="matrix(1,0,0,-1,0,510.70127)" d="M412.43934 43.965627V40.465627"/>
<path transform="matrix(1,0,0,-1,0,510.70127)" stroke-width=".8" stroke-linecap="butt" stroke-linejoin="round" fill="none" stroke="#000000" d="M412.43934 43.965627V40.465627"/>
<text xml:space="preserve" transform="matrix(1 0 -0 1 404.65809 483.75126)" font-size="14" font-family="ArialMT"><tspan y="0" x="0 7.784001">25</tspan></text>
<g clip-path="url(#clip_7)">
<path transform="matrix(1,0,0,-1,0,510.70127)" stroke-width=".8" stroke-linecap="square" stroke-linejoin="round" fill="none" stroke="#cccccc" d="M483.9865 43.965627V487.48564"/>
</g>
<path transform="matrix(1,0,0,-1,0,510.70127)" d="M483.9865 43.965627V40.465627"/>
<path transform="matrix(1,0,0,-1,0,510.70127)" stroke-width=".8" stroke-linecap="butt" stroke-linejoin="round" fill="none" stroke="#000000" d="M483.9865 43.965627V40.465627"/>
<text xml:space="preserve" transform="matrix(1 0 -0 1 476.20527 483.75126)" font-size="14" font-family="ArialMT"><tspan y="0" x="0 7.784001">30</tspan></text>
<text xml:space="preserve" transform="matrix(1 0 -0 1 246.39969 500.54814)" font-size="14" font-family="ArialMT"><tspan y="0" x="0 4.662 12.446001 20.230002 27.230002 30.338002 38.122">ranking</tspan></text>
<g clip-path="url(#clip_8)">
<path transform="matrix(1,0,0,-1,0,510.70127)" stroke-width=".8" stroke-linecap="square" stroke-linejoin="round" fill="none" stroke="#cccccc" d="M41.825 61.50074H496.865"/>
</g>
<path transform="matrix(1,0,0,-1,0,510.70127)" d="M41.825 61.50074H38.325"/>
<path transform="matrix(1,0,0,-1,0,510.70127)" stroke-width=".8" stroke-linecap="butt" stroke-linejoin="round" fill="none" stroke="#000000" d="M41.825 61.50074H38.325"/>
<text xml:space="preserve" transform="matrix(1 0 -0 1 7.2 454.20835)" font-size="14" font-family="ArialMT"><tspan y="0" x="8.175781 15.959782 19.851782">5.5</tspan></text>
<g clip-path="url(#clip_9)">
<path transform="matrix(.014,0,0,-.014,7.2,454.20835)" d="M528 312H56V394H528V312Z"/>
</g>
<g clip-path="url(#clip_10)">
<path transform="matrix(1,0,0,-1,0,510.70127)" stroke-width=".8" stroke-linecap="square" stroke-linejoin="round" fill="none" stroke="#cccccc" d="M41.825 120.7598H496.865"/>
</g>
<path transform="matrix(1,0,0,-1,0,510.70127)" d="M41.825 120.7598H38.325"/>
<path transform="matrix(1,0,0,-1,0,510.70127)" stroke-width=".8" stroke-linecap="butt" stroke-linejoin="round" fill="none" stroke="#000000" d="M41.825 120.7598H38.325"/>
<text xml:space="preserve" transform="matrix(1 0 -0 1 7.2 394.94929)" font-size="14" font-family="ArialMT"><tspan y="0" x="8.175781 15.959782 19.851782">5.0</tspan></text>
<g clip-path="url(#clip_11)">
<path transform="matrix(.014,0,0,-.014,7.2,394.94929)" d="M528 312H56V394H528V312Z"/>
</g>
<g clip-path="url(#clip_12)">
<path transform="matrix(1,0,0,-1,0,510.70127)" stroke-width=".8" stroke-linecap="square" stroke-linejoin="round" fill="none" stroke="#cccccc" d="M41.825 180.01886H496.865"/>
</g>
<path transform="matrix(1,0,0,-1,0,510.70127)" d="M41.825 180.01886H38.325"/>
<path transform="matrix(1,0,0,-1,0,510.70127)" stroke-width=".8" stroke-linecap="butt" stroke-linejoin="round" fill="none" stroke="#000000" d="M41.825 180.01886H38.325"/>
<text xml:space="preserve" transform="matrix(1 0 -0 1 7.2 335.69023)" font-size="14" font-family="ArialMT"><tspan y="0" x="8.175781 15.959782 19.851782">4.5</tspan></text>
<g clip-path="url(#clip_13)">
<path transform="matrix(.014,0,0,-.014,7.2,335.69023)" d="M528 312H56V394H528V312Z"/>
</g>
<g clip-path="url(#clip_14)">
<path transform="matrix(1,0,0,-1,0,510.70127)" stroke-width=".8" stroke-linecap="square" stroke-linejoin="round" fill="none" stroke="#cccccc" d="M41.825 239.27793H496.865"/>
</g>
<path transform="matrix(1,0,0,-1,0,510.70127)" d="M41.825 239.27793H38.325"/>
<path transform="matrix(1,0,0,-1,0,510.70127)" stroke-width=".8" stroke-linecap="butt" stroke-linejoin="round" fill="none" stroke="#000000" d="M41.825 239.27793H38.325"/>
<text xml:space="preserve" transform="matrix(1 0 -0 1 7.2 276.43116)" font-size="14" font-family="ArialMT"><tspan y="0" x="8.175781 15.959782 19.851782">4.0</tspan></text>
<g clip-path="url(#clip_15)">
<path transform="matrix(.014,0,0,-.014,7.2,276.43116)" d="M528 312H56V394H528V312Z"/>
</g>
<g clip-path="url(#clip_16)">
<path transform="matrix(1,0,0,-1,0,510.70127)" stroke-width=".8" stroke-linecap="square" stroke-linejoin="round" fill="none" stroke="#cccccc" d="M41.825 298.537H496.865"/>
</g>
<path transform="matrix(1,0,0,-1,0,510.70127)" d="M41.825 298.537H38.325"/>
<path transform="matrix(1,0,0,-1,0,510.70127)" stroke-width=".8" stroke-linecap="butt" stroke-linejoin="round" fill="none" stroke="#000000" d="M41.825 298.537H38.325"/>
<text xml:space="preserve" transform="matrix(1 0 -0 1 7.2 217.17209)" font-size="14" font-family="ArialMT"><tspan y="0" x="8.175781 15.959782 19.851782">3.5</tspan></text>
<g clip-path="url(#clip_17)">
<path transform="matrix(.014,0,0,-.014,7.2,217.17209)" d="M528 312H56V394H528V312Z"/>
</g>
<g clip-path="url(#clip_18)">
<path transform="matrix(1,0,0,-1,0,510.70127)" stroke-width=".8" stroke-linecap="square" stroke-linejoin="round" fill="none" stroke="#cccccc" d="M41.825 357.79606H496.865"/>
</g>
<path transform="matrix(1,0,0,-1,0,510.70127)" d="M41.825 357.79606H38.325"/>
<path transform="matrix(1,0,0,-1,0,510.70127)" stroke-width=".8" stroke-linecap="butt" stroke-linejoin="round" fill="none" stroke="#000000" d="M41.825 357.79606H38.325"/>
<text xml:space="preserve" transform="matrix(1 0 -0 1 7.2 157.91303)" font-size="14" font-family="ArialMT"><tspan y="0" x="8.175781 15.959782 19.851782">3.0</tspan></text>
<g clip-path="url(#clip_19)">
<path transform="matrix(.014,0,0,-.014,7.2,157.91303)" d="M528 312H56V394H528V312Z"/>
</g>
<g clip-path="url(#clip_20)">
<path transform="matrix(1,0,0,-1,0,510.70127)" stroke-width=".8" stroke-linecap="square" stroke-linejoin="round" fill="none" stroke="#cccccc" d="M41.825 417.0551H496.865"/>
</g>
<path transform="matrix(1,0,0,-1,0,510.70127)" d="M41.825 417.0551H38.325"/>
<path transform="matrix(1,0,0,-1,0,510.70127)" stroke-width=".8" stroke-linecap="butt" stroke-linejoin="round" fill="none" stroke="#000000" d="M41.825 417.0551H38.325"/>
<text xml:space="preserve" transform="matrix(1 0 -0 1 7.2 98.65396)" font-size="14" font-family="ArialMT"><tspan y="0" x="8.175781 15.959782 19.851782">2.5</tspan></text>
<g clip-path="url(#clip_21)">
<path transform="matrix(.014,0,0,-.014,7.2,98.65396)" d="M528 312H56V394H528V312Z"/>
</g>
<g clip-path="url(#clip_22)">
<path transform="matrix(1,0,0,-1,0,510.70127)" stroke-width=".8" stroke-linecap="square" stroke-linejoin="round" fill="none" stroke="#cccccc" d="M41.825 476.31419H496.865"/>
</g>
<path transform="matrix(1,0,0,-1,0,510.70127)" d="M41.825 476.31419H38.325"/>
<path transform="matrix(1,0,0,-1,0,510.70127)" stroke-width=".8" stroke-linecap="butt" stroke-linejoin="round" fill="none" stroke="#000000" d="M41.825 476.31419H38.325"/>
<text xml:space="preserve" transform="matrix(1 0 -0 1 7.2 39.394899)" font-size="14" font-family="ArialMT"><tspan y="0" x="8.175781 15.959782 19.851782">2.0</tspan></text>
<g clip-path="url(#clip_23)">
<path transform="matrix(.014,0,0,-.014,7.2,39.394899)" d="M528 312H56V394H528V312Z"/>
</g>
<path transform="matrix(1,0,0,-1,0,510.70127)" stroke-width=".8" stroke-linecap="square" stroke-miterlimit="10" stroke-linejoin="miter" fill="none" stroke="#000000" d="M41.825 43.965627V487.48564"/>
<path transform="matrix(1,0,0,-1,0,510.70127)" stroke-width=".8" stroke-linecap="square" stroke-miterlimit="10" stroke-linejoin="miter" fill="none" stroke="#000000" d="M496.865 43.965627V487.48564"/>
<path transform="matrix(1,0,0,-1,0,510.70127)" stroke-width=".8" stroke-linecap="square" stroke-miterlimit="10" stroke-linejoin="miter" fill="none" stroke="#000000" d="M41.825 43.965627H496.865"/>
<path transform="matrix(1,0,0,-1,0,510.70127)" stroke-width=".8" stroke-linecap="square" stroke-miterlimit="10" stroke-linejoin="miter" fill="none" stroke="#000000" d="M41.825 487.48564H496.865"/>
<text xml:space="preserve" transform="matrix(0 -1 1 0 56.773805 35.10327)" font-size="8" font-family="ArialMT"><tspan y="0" x="0 5.3360006 11.112001">PC1</tspan></text>
<text xml:space="preserve" transform="matrix(0 -1 1 0 71.08324 128.9682)" font-size="8" font-family="ArialMT"><tspan y="0" x="0 5.3360006 11.112001">PC2</tspan></text>
<text xml:space="preserve" transform="matrix(0 -1 1 0 85.39267 159.8613)" font-size="8" font-family="ArialMT"><tspan y="0" x="0 5.3360006 11.112001">PC3</tspan></text>
<text xml:space="preserve" transform="matrix(0 -1 1 0 99.7021 191.91516)" font-size="8" font-family="ArialMT"><tspan y="0" x="0 5.3360006 11.112001">PC4</tspan></text>
<text xml:space="preserve" transform="matrix(0 -1 1 0 114.011539 243.32233)" font-size="8" font-family="ArialMT"><tspan y="0" x="0 5.3360006 11.112001">PC5</tspan></text>
<text xml:space="preserve" transform="matrix(0 -1 1 0 128.32097 249.77576)" font-size="8" font-family="ArialMT"><tspan y="0" x="0 5.3360006 11.112001">PC6</tspan></text>
<text xml:space="preserve" transform="matrix(0 -1 1 0 142.6304 281.7074)" font-size="8" font-family="ArialMT"><tspan y="0" x="0 5.3360006 11.112001">PC7</tspan></text>
<text xml:space="preserve" transform="matrix(0 -1 1 0 156.93984 285.6692)" font-size="8" font-family="ArialMT"><tspan y="0" x="0 5.3360006 11.112001">PC8</tspan></text>
<text xml:space="preserve" transform="matrix(0 -1 1 0 171.24927 319.51765)" font-size="8" font-family="ArialMT"><tspan y="0" x="0 5.3360006 11.112001">PC9</tspan></text>
<text xml:space="preserve" transform="matrix(0 -1 1 0 185.5587 331.57203)" font-size="8" font-family="ArialMT"><tspan y="0" x="0 5.3360006 11.112001 15.560001">PC10</tspan></text>
<text xml:space="preserve" transform="matrix(0 -1 1 0 199.86815 334.151)" font-size="8" font-family="ArialMT"><tspan y="0" x="0 5.3360006 11.112001 14.966251">PC11</tspan></text>
<text xml:space="preserve" transform="matrix(0 -1 1 0 214.17758 344.68788)" font-size="8" font-family="ArialMT"><tspan y="0" x="0 5.3360006 11.112001 15.560001">PC12</tspan></text>
<text xml:space="preserve" transform="matrix(0 -1 1 0 228.48702 348.23365)" font-size="8" font-family="ArialMT"><tspan y="0" x="0 5.3360006 11.112001 15.560001">PC13</tspan></text>
<text xml:space="preserve" transform="matrix(0 -1 1 0 242.79645 356.53584)" font-size="8" font-family="ArialMT"><tspan y="0" x="0 5.3360006 11.112001 15.560001">PC14</tspan></text>
<text xml:space="preserve" transform="matrix(0 -1 1 0 257.10588 369.1438)" font-size="8" font-family="ArialMT"><tspan y="0" x="0 5.3360006 11.112001 15.560001">PC15</tspan></text>
<text xml:space="preserve" transform="matrix(0 -1 1 0 271.4153 372.5478)" font-size="8" font-family="ArialMT"><tspan y="0" x="0 5.3360006 11.112001 15.560001">PC16</tspan></text>
<text xml:space="preserve" transform="matrix(0 -1 1 0 285.72474 379.5648)" font-size="8" font-family="ArialMT"><tspan y="0" x="0 5.3360006 11.112001 15.560001">PC17</tspan></text>
<text xml:space="preserve" transform="matrix(0 -1 1 0 300.03419 382.4103)" font-size="8" font-family="ArialMT"><tspan y="0" x="0 5.3360006 11.112001 15.560001">PC18</tspan></text>
<text xml:space="preserve" transform="matrix(0 -1 1 0 314.34364 390.08265)" font-size="8" font-family="ArialMT"><tspan y="0" x="0 5.3360006 11.112001 15.560001">PC19</tspan></text>
<text xml:space="preserve" transform="matrix(0 -1 1 0 328.65306 394.99363)" font-size="8" font-family="ArialMT"><tspan y="0" x="0 5.3360006 11.112001 15.560001">PC20</tspan></text>
<text xml:space="preserve" transform="matrix(0 -1 1 0 342.9625 397.85267)" font-size="8" font-family="ArialMT"><tspan y="0" x="0 5.3360006 11.112001 15.560001">PC21</tspan></text>
<text xml:space="preserve" transform="matrix(0 -1 1 0 357.2719 401.53315)" font-size="8" font-family="ArialMT"><tspan y="0" x="0 5.3360006 11.112001 15.560001">PC22</tspan></text>
<text xml:space="preserve" transform="matrix(0 -1 1 0 371.58137 406.40736)" font-size="8" font-family="ArialMT"><tspan y="0" x="0 5.3360006 11.112001 15.560001">PC23</tspan></text>
<text xml:space="preserve" transform="matrix(0 -1 1 0 385.89079 410.8299)" font-size="8" font-family="ArialMT"><tspan y="0" x="0 5.3360006 11.112001 15.560001">PC24</tspan></text>
<text xml:space="preserve" transform="matrix(0 -1 1 0 400.20024 412.73158)" font-size="8" font-family="ArialMT"><tspan y="0" x="0 5.3360006 11.112001 15.560001">PC25</tspan></text>
<text xml:space="preserve" transform="matrix(0 -1 1 0 414.50965 416.19493)" font-size="8" font-family="ArialMT"><tspan y="0" x="0 5.3360006 11.112001 15.560001">PC26</tspan></text>
<text xml:space="preserve" transform="matrix(0 -1 1 0 428.8191 419.2366)" font-size="8" font-family="ArialMT"><tspan y="0" x="0 5.3360006 11.112001 15.560001">PC27</tspan></text>
<text xml:space="preserve" transform="matrix(0 -1 1 0 443.1285 422.71629)" font-size="8" font-family="ArialMT"><tspan y="0" x="0 5.3360006 11.112001 15.560001">PC28</tspan></text>
<text xml:space="preserve" transform="matrix(0 -1 1 0 457.43797 427.67103)" font-size="8" font-family="ArialMT"><tspan y="0" x="0 5.3360006 11.112001 15.560001">PC29</tspan></text>
<text xml:space="preserve" transform="matrix(0 -1 1 0 471.74739 429.97917)" font-size="8" font-family="ArialMT"><tspan y="0" x="0 5.3360006 11.112001 15.560001">PC30</tspan></text>
<text xml:space="preserve" transform="matrix(0 -1 1 0 486.05683 434.8602)" font-size="8" font-family="ArialMT"><tspan y="0" x="0 5.3360006 11.112001 15.560001">PC31</tspan></text>
<text xml:space="preserve" transform="matrix(1 0 -0 1 227.345 17.215638)" font-size="14" font-family="ArialMT"><tspan y="0" x="0 7 14.784 19.446002 22.554 30.338002 38.122 45.122 52.906003 56.798006 61.460004 69.244 73.136 76.244">variance ratio</tspan></text>
</svg>
